<?xml version="1.0" encoding="utf-8"?>
<!-- Generator: Adobe Illustrator 28.1.0, SVG Export Plug-In . SVG Version: 6.00 Build 0)  -->
<svg version="1.1" id="Layer_1" xmlns="http://www.w3.org/2000/svg" xmlns:xlink="http://www.w3.org/1999/xlink" x="0px" y="0px"
	 viewBox="0 0 48 48" style="enable-background:new 0 0 48 48;" xml:space="preserve">
<style type="text/css">
	.st0{fill:#EC5827;}
	.st1{fill:#3996B2;}
	.st2{fill:#F8AE0D;}
	.st3{fill:#45B640;}
	.st4{fill:#685BFE;}
	.st5{fill:#FFFFFF;}
</style>
<g>
	<rect x="9" y="23.1" class="st0" width="3" height="3"/>
	<rect x="12" y="20.1" class="st1" width="3" height="3"/>
	<rect x="12" y="26.1" class="st2" width="3" height="3"/>
	<rect x="15" y="23.1" class="st3" width="3" height="3"/>
	<g>
		<polygon class="st4" points="12,11.1 12,14.1 15,14.1 18,14.1 18,11.1 15,11.1 		"/>
		<polygon class="st4" points="36,14.1 36,11.1 33,11.1 30,11.1 30,14.1 33,14.1 		"/>
		<polygon class="st4" points="21,26.1 21,29.1 24,29.1 27,29.1 27,26.1 24,26.1 		"/>
		<polygon class="st4" points="36,23.1 36,20.1 33,20.1 33,23.1 30,23.1 30,26.1 33,26.1 33,29.1 36,29.1 36,26.1 39,26.1 39,23.1 
					"/>
	</g>
	<g>
		<rect x="12" y="23.1" class="st5" width="3" height="3"/>
		<path class="st5" d="M42,20.1v-3h-3v-3h-3h-3h-3h-3h-3h-3h-3h-3h-3H9v3H6v3H3v3v3v3h3v3v3h3v3h3h3h3v-3h3h3h3h3v3h3h3h3v-3h3v-3
			v-3h3v-3v-3v-3H42z M39,26.1h-3v3h-3v-3h-3v-3h3v-3h3v3h3V26.1z M12,29.1v-3H9v-3h3v-3h3v3h3v3h-3v3H12z M21,26.1h3h3v3h-3h-3
			V26.1z"/>
	</g>
</g>
</svg>
